<?xml version="1.0" encoding="iso-8859-1"?>
<!-- Uploaded to: SVG Repo, www.svgrepo.com, Generator: SVG Repo Mixer Tools -->
<svg height="800px" width="800px" version="1.1" id="Layer_1" xmlns="http://www.w3.org/2000/svg" xmlns:xlink="http://www.w3.org/1999/xlink" 
	 viewBox="0 0 512 512" xml:space="preserve">
<path style="fill:#00BCD4;" d="M434.605,11.907v386.974H107.761c-16.86-0.036-30.363,13.455-30.363,30.124V42.269
	c0-16.765,13.598-30.363,30.363-30.363H434.605z"/>
<g>
	<path style="fill:#FFFFFF;" d="M321.489,122.614V69.087c0-6.263-5.077-11.339-11.339-11.339h-35.098h-8.165
		c-24.426,0-44.226,19.801-44.226,44.226v206.839c0,24.426,19.801,44.226,44.226,44.226h8.165h35.098
		c6.263,0,11.339-5.077,11.339-11.339v-53.525c0-6.263-5.077-11.339-11.339-11.339h-31.526V133.954h31.526
		C316.412,133.953,321.489,128.875,321.489,122.614z"/>
	<path style="fill:#FFFFFF;" d="M434.605,500.09H107.761c-16.944,0.036-30.494-13.586-30.363-30.363v-40.722
		c0-16.67,13.502-30.16,30.363-30.124h326.844C412.684,429.053,412.684,469.918,434.605,500.09z"/>
</g>
<g>
	<path style="fill:#231F20;" d="M310.149,45.842h-43.261c-30.952,0-56.133,25.181-56.133,56.134v206.838
		c0,30.952,25.181,56.134,56.133,56.134h43.261c12.818,0,23.246-10.428,23.246-23.246v-53.525c0-12.819-10.428-23.246-23.246-23.246
		H290.53V145.862h19.619c12.818,0,23.246-10.428,23.246-23.246V69.087C333.396,56.27,322.967,45.842,310.149,45.842z
		 M309.582,122.046h-30.958c-6.576,0-11.907,5.332-11.907,11.907v142.883c0,6.575,5.331,11.907,11.907,11.907h30.958v52.39h-42.695
		c-17.821,0-32.319-14.499-32.319-32.32V101.975c0-17.821,14.498-32.32,32.319-32.32h42.695V122.046z"/>
	<path style="fill:#231F20;" d="M446.484,398.868l0.026,0.013V11.907C446.511,5.332,441.18,0,434.604,0H107.759
		C84.452,0,65.49,18.962,65.49,42.269v427.365c-0.088,11.302,4.244,21.931,12.199,29.932c7.975,8.019,18.625,12.431,29.978,12.431
		c0.031,0,0.063,0,0.094,0h23.129c0.03,0,0.06,0.004,0.089,0.004c0.029,0,0.057-0.004,0.085-0.004h303.541
		c4.477,0,8.577-2.511,10.609-6.501c2.033-3.99,1.655-8.783-0.976-12.405c-18.95-26.081-18.95-61.13,0-87.211
		C445.746,403.803,446.487,401.342,446.484,398.868z M107.734,488.183c-0.014,0-0.027,0-0.042,0c-4.99,0-9.648-1.919-13.117-5.408
		c-3.439-3.458-5.31-8.059-5.272-13.048v-40.722c0-4.868,1.891-9.435,5.324-12.861c3.464-3.455,8.101-5.357,13.09-5.357
		c0.014,0,0.027,0,0.042,0h7.448c-5.855,25.213-5.855,52.182,0,77.395H107.734z M414.192,488.183H139.804
		c-6.751-24.763-6.751-52.632,0-77.395h274.387C403.531,435.491,403.531,463.479,414.192,488.183z M138.109,386.974
		c0.002-0.092,0.014-0.18,0.014-0.273v-32.522c0-6.575-5.331-11.907-11.907-11.907c-6.576,0-11.907,5.332-11.907,11.907v32.522
		c0,0.092,0.012,0.181,0.014,0.273h-6.537c-0.032,0-0.062,0-0.094,0c-6.486,0-12.737,1.443-18.394,4.165l0.007-0.011V42.269
		c0-10.177,8.279-18.456,18.456-18.456h6.549v230.994c0,6.575,5.331,11.907,11.907,11.907c6.576,0,11.907-5.332,11.907-11.907
		V23.814h284.575v363.16H138.109z"/>
	<path style="fill:#231F20;" d="M126.216,291.421c-6.576,0-11.907,5.332-11.907,11.907v4.167c0,6.575,5.331,11.907,11.907,11.907
		c6.576,0,11.907-5.332,11.907-11.907v-4.167C138.123,296.753,132.792,291.421,126.216,291.421z"/>
</g>
</svg>